<svg width="64" height="64" viewBox="0 0 64 64" fill="none" xmlns="http://www.w3.org/2000/svg">
<rect width="64" height="64" fill="white"/>
<path fill-rule="evenodd" clip-rule="evenodd" d="M32 9C35.9197 9 39.6105 9.98053 42.8403 11.7097L45.776 8.77397C41.7429 6.37668 37.0322 5 32 5C17.0883 5 5 17.0883 5 32C5 46.9117 17.0883 59 32 59C46.9117 59 59 46.9117 59 32C59 26.9677 57.6233 22.257 55.226 18.224L52.2903 21.1597C54.0195 24.3895 55 28.0802 55 32C55 44.7025 44.7025 55 32 55C19.2975 55 9 44.7025 9 32C9 19.2975 19.2975 9 32 9ZM40.4122 17.2239C37.9317 15.8086 35.0603 15 32 15C22.6112 15 15 22.6112 15 32C15 41.3888 22.6112 49 32 49C41.3888 49 49 41.3888 49 32C49 28.9397 48.1914 26.0684 46.7762 23.5878L44.5585 25.8055C45.4814 27.673 46 29.7759 46 32C46 39.732 39.732 46 32 46C24.268 46 18 39.732 18 32C18 24.268 24.268 18 32 18C34.2241 18 36.3271 18.5186 38.1945 19.4415L40.4122 17.2239Z" fill="#474747"/>
<path d="M32 32L45 19" stroke="#474747" stroke-width="3"/>
<path fill-rule="evenodd" clip-rule="evenodd" d="M43.5 20V15L53.5 5V10H58.5L48.5 20H43.5ZM32.5 35C34.433 35 36 33.433 36 31.5C36 29.567 34.433 28 32.5 28C30.567 28 29 29.567 29 31.5C29 33.433 30.567 35 32.5 35Z" fill="#474747"/>
<path d="M43.5 15L43.1464 14.6464L43 14.7929V15H43.5ZM43.5 20H43V20.5H43.5V20ZM53.5 5H54V3.79289L53.1464 4.64645L53.5 5ZM53.5 10H53V10.5H53.5V10ZM58.5 10L58.8536 10.3536L59.7071 9.5H58.5V10ZM48.5 20V20.5H48.7071L48.8536 20.3536L48.5 20ZM37.3137 26.4444L36.953 26.0982L36.9524 26.0988L37.3137 26.4444ZM43 15V20H44V15H43ZM53.1464 4.64645L43.1464 14.6464L43.8536 15.3536L53.8536 5.35355L53.1464 4.64645ZM54 10V5H53V10H54ZM58.5 9.5H53.5V10.5H58.5V9.5ZM48.8536 20.3536L58.8536 10.3536L58.1464 9.64645L48.1464 19.6464L48.8536 20.3536ZM43.5 20.5H48.5V19.5H43.5V20.5ZM35.5 31.5C35.5 33.1569 34.1569 34.5 32.5 34.5V35.5C34.7091 35.5 36.5 33.7091 36.5 31.5H35.5ZM32.5 28.5C34.1569 28.5 35.5 29.8431 35.5 31.5H36.5C36.5 29.2909 34.7091 27.5 32.5 27.5V28.5ZM29.5 31.5C29.5 29.8431 30.8431 28.5 32.5 28.5V27.5C30.2909 27.5 28.5 29.2909 28.5 31.5H29.5ZM32.5 34.5C30.8431 34.5 29.5 33.1569 29.5 31.5H28.5C28.5 33.7091 30.2909 35.5 32.5 35.5V34.5ZM35.2692 29.3054L37.6751 26.79L36.9524 26.0988L34.5465 28.6142L35.2692 29.3054ZM37.6745 26.7907L43.8607 20.3463L43.1393 19.6537L36.953 26.0982L37.6745 26.7907Z" fill="#474747"/>
</svg>
