<svg width="24" height="24" viewBox="0 0 24 24" fill="none" xmlns="http://www.w3.org/2000/svg">
<rect width="24" height="24" fill="white"/>
<path fill-rule="evenodd" clip-rule="evenodd" d="M16 4.5V5.07026C14.8233 4.38958 13.4571 4 12 4C7.58172 4 4 7.58172 4 12C4 16.4183 7.58172 20 12 20C16.4183 20 20 16.4183 20 12C20 10.5429 19.6104 9.17669 18.9297 8H19.5L20.6022 6.89777C21.4901 8.3915 22 10.1362 22 12C22 17.5228 17.5228 22 12 22C6.47715 22 2 17.5228 2 12C2 6.47715 6.47715 2 12 2C13.8638 2 15.6085 2.50988 17.1022 3.39777L16 4.5ZM15.048 6.83073L15.7747 6.10395C14.6856 5.40521 13.3901 5 12 5C8.13401 5 5 8.13401 5 12C5 15.866 8.13401 19 12 19C15.866 19 19 15.866 19 12C19 10.6099 18.5948 9.31442 17.8961 8.22527L17.1693 8.95205C17.6971 9.84532 18 10.8873 18 12C18 15.3137 15.3137 18 12 18C8.68629 18 6 15.3137 6 12C6 8.68629 8.68629 6 12 6C13.1127 6 14.1547 6.30289 15.048 6.83073Z" fill="#474747"/>
<path fill-rule="evenodd" clip-rule="evenodd" d="M17 7V5.5L19 3.5V5H20.5L18.5 7H17ZM12 13C12.5523 13 13 12.5523 13 12C13 11.4477 12.5523 11 12 11C11.4477 11 11 11.4477 11 12C11 12.5523 11.4477 13 12 13Z" fill="#474747"/>
<path d="M17 5.5L16.6464 5.14645L16.5 5.29289V5.5H17ZM17 7H16.5V7.5H17V7ZM19 3.5H19.5V2.29289L18.6464 3.14645L19 3.5ZM19 5H18.5V5.5H19V5ZM20.5 5L20.8536 5.35355L21.7071 4.5H20.5V5ZM18.5 7V7.5H18.7071L18.8536 7.35355L18.5 7ZM16.5 5.5V7H17.5V5.5H16.5ZM18.6464 3.14645L16.6464 5.14645L17.3536 5.85355L19.3536 3.85355L18.6464 3.14645ZM19.5 5V3.5H18.5V5H19.5ZM20.5 4.5H19V5.5H20.5V4.5ZM18.8536 7.35355L20.8536 5.35355L20.1464 4.64645L18.1464 6.64645L18.8536 7.35355ZM17 7.5H18.5V6.5H17V7.5ZM12.5 12C12.5 12.2761 12.2761 12.5 12 12.5V13.5C12.8284 13.5 13.5 12.8284 13.5 12H12.5ZM12 11.5C12.2761 11.5 12.5 11.7239 12.5 12H13.5C13.5 11.1716 12.8284 10.5 12 10.5V11.5ZM11.5 12C11.5 11.7239 11.7239 11.5 12 11.5V10.5C11.1716 10.5 10.5 11.1716 10.5 12H11.5ZM12 12.5C11.7239 12.5 11.5 12.2761 11.5 12H10.5C10.5 12.8284 11.1716 13.5 12 13.5V12.5ZM13.0607 11.6464L17.3536 7.35355L16.6464 6.64645L12.3536 10.9393L13.0607 11.6464Z" fill="#474747"/>
</svg>
